<svg xmlns="http://www.w3.org/2000/svg" viewBox="0 0 64 64"><g data-name="cup cake"><path fill="#8a523f" d="M32.5,13h-1A14.51,14.51,0,0,0,17,27.5,1.5,1.5,0,0,0,18.5,29h27A1.5,1.5,0,0,0,47,27.5,14.51,14.51,0,0,0,32.5,13Z"/><path fill="#e9e4e3" d="M47.71,38.3A1,1,0,0,0,47,38H17a1,1,0,0,0-1,1l.07,5.61a1.1,1.1,0,0,0,0,.18L19,60.19A1,1,0,0,0,20,61H44a1,1,0,0,0,1-.81L47.91,44.8a1.1,1.1,0,0,0,0-.18L48,39A1,1,0,0,0,47.71,38.3Z"/><path fill="#878787" d="M41 47a1 1 0 0 0-1 1v6a1 1 0 0 0 2 0V48A1 1 0 0 0 41 47zM35 47a1 1 0 0 0-1 1v6a1 1 0 0 0 2 0V48A1 1 0 0 0 35 47zM23 47a1 1 0 0 0-1 1v6a1 1 0 0 0 2 0V48A1 1 0 0 0 23 47zM29 47a1 1 0 0 0-1 1v6a1 1 0 0 0 2 0V48A1 1 0 0 0 29 47z"/><path fill="#b37849" d="M49.64,35H14.36A1.4,1.4,0,0,0,13,36.43v5.71a2.72,2.72,0,1,0,5.43,0,2.72,2.72,0,1,0,5.43,0,2.72,2.72,0,1,0,5.43,0,2.71,2.71,0,1,0,5.42,0,2.72,2.72,0,1,0,5.43,0,2.72,2.72,0,1,0,5.43,0,2.72,2.72,0,1,0,5.43,0V36.43A1.4,1.4,0,0,0,49.64,35Z"/><path fill="#eb5e57" d="M46,27H18a5,5,0,0,0,0,10H46a5,5,0,0,0,0-10Z"/><circle cx="32" cy="11" r="4" fill="#e84133"/><path fill="#231f20" d="M44,61H20a1,1,0,0,1-1-.81L16.09,44.8a1,1,0,0,1,.79-1.17,1,1,0,0,1,1.17.79L20.83,59H43.17L46,44.42a1,1,0,0,1,1.17-.79,1,1,0,0,1,.79,1.17L45,60.19A1,1,0,0,1,44,61Z"/><path fill="#231f20" d="M41 55a1 1 0 0 1-1-1V48a1 1 0 0 1 2 0v6A1 1 0 0 1 41 55zM35 55a1 1 0 0 1-1-1V48a1 1 0 0 1 2 0v6A1 1 0 0 1 35 55zM23 55a1 1 0 0 1-1-1V48a1 1 0 0 1 2 0v6A1 1 0 0 1 23 55zM29 55a1 1 0 0 1-1-1V48a1 1 0 0 1 2 0v6A1 1 0 0 1 29 55zM49 37v5.14a.73.73 0 1 1-1.43 0 2 2 0 0 0-4 0 .73.73 0 1 1-1.43 0 2 2 0 0 0-4 0 .73.73 0 1 1-1.43 0 2 2 0 0 0-4 0 .72.72 0 1 1-1.42 0 2 2 0 0 0-4 0 .73.73 0 1 1-1.43 0 2 2 0 0 0-4 0 .73.73 0 1 1-1.43 0 2 2 0 0 0-4 0 .73.73 0 1 1-1.43 0V37H49m.64-2H14.36A1.4 1.4 0 0 0 13 36.43v5.71a2.72 2.72 0 1 0 5.43 0 2.72 2.72 0 1 0 5.43 0 2.72 2.72 0 1 0 5.43 0 2.71 2.71 0 1 0 5.42 0 2.72 2.72 0 1 0 5.43 0 2.72 2.72 0 1 0 5.43 0 2.72 2.72 0 1 0 5.43 0V36.43A1.4 1.4 0 0 0 49.64 35z"/><path fill="#231f20" d="M46,37H18a5,5,0,0,1,0-10H46a5,5,0,0,1,0,10ZM18,29a3,3,0,0,0,0,6H46a3,3,0,0,0,0-6Z"/><path fill="#231f20" d="M45.5,29h-27A1.5,1.5,0,0,1,17,27.5,14.51,14.51,0,0,1,31.5,13h1A14.51,14.51,0,0,1,47,27.5,1.5,1.5,0,0,1,45.5,29ZM19,27H45A12.51,12.51,0,0,0,32.5,15h-1A12.51,12.51,0,0,0,19,27Z"/><path fill="#231f20" d="M32,15a4,4,0,1,1,4-4A4,4,0,0,1,32,15Zm0-6a2,2,0,1,0,2,2A2,2,0,0,0,32,9Z"/></g></svg>